# Blender v2.93.5 OBJ File: ''
# www.blender.org
o Podlaha1_Cube
v -4.000000 0.050859 -4.000000
v 4.000000 0.050859 4.000000
v 4.000000 0.050859 -4.000000
v -4.000000 -0.050859 4.000000
v 4.000000 -0.050859 4.000000
v -4.000000 0.050859 4.000000
v -4.000000 -0.050859 -4.000000
v 4.000000 -0.050859 -4.000000
vt 0.875000 0.500000
vt 0.625000 0.750000
vt 0.625000 0.500000
vt 0.375000 1.000000
vt 0.375000 0.750000
vt 0.625000 0.000000
vt 0.375000 0.250000
vt 0.375000 0.000000
vt 0.375000 0.500000
vt 0.125000 0.750000
vt 0.125000 0.500000
vt 0.625000 0.250000
vt 0.875000 0.750000
vt 0.625000 1.000000
vn 0.0000 1.0000 0.0000
vn 0.0000 0.0000 1.0000
vn -1.0000 0.0000 0.0000
vn 0.0000 -1.0000 -0.0000
vn 1.0000 0.0000 0.0000
vn 0.0000 0.0000 -1.0000
s 1
f 1/1/1 2/2/1 3/3/1
f 2/2/2 4/4/2 5/5/2
f 6/6/3 7/7/3 4/8/3
f 8/9/4 4/10/4 7/11/4
f 3/3/5 5/5/5 8/9/5
f 1/12/6 8/9/6 7/7/6
f 1/1/1 6/13/1 2/2/1
f 2/2/2 6/14/2 4/4/2
f 6/6/3 1/12/3 7/7/3
f 8/9/4 5/5/4 4/10/4
f 3/3/5 2/2/5 5/5/5
f 1/12/6 3/3/6 8/9/6
o Stena1_2_Cube.002
v -4.000000 4.376683 -4.010343
v 4.000000 -0.042679 -4.010343
v 4.000000 4.376683 -4.010343
v -4.000000 -0.042679 -4.112062
v 4.000000 -0.042679 -4.112062
v -4.000000 -0.042679 -4.010343
v -4.000000 4.376683 -4.112061
v 4.000000 4.376683 -4.112061
vt 0.875000 0.500000
vt 0.625000 0.750000
vt 0.625000 0.500000
vt 0.375000 1.000000
vt 0.375000 0.750000
vt 0.625000 0.000000
vt 0.375000 0.250000
vt 0.375000 0.000000
vt 0.375000 0.500000
vt 0.125000 0.750000
vt 0.125000 0.500000
vt 0.625000 0.250000
vt 0.875000 0.750000
vt 0.625000 1.000000
vn 0.0000 0.0000 1.0000
vn 0.0000 -1.0000 -0.0000
vn -1.0000 0.0000 0.0000
vn 0.0000 0.0000 -1.0000
vn 1.0000 0.0000 0.0000
vn 0.0000 1.0000 0.0000
s 1
f 9/15/7 10/16/7 11/17/7
f 10/16/8 12/18/8 13/19/8
f 14/20/9 15/21/9 12/22/9
f 16/23/10 12/24/10 15/25/10
f 11/17/11 13/19/11 16/23/11
f 9/26/12 16/23/12 15/21/12
f 9/15/7 14/27/7 10/16/7
f 10/16/8 14/28/8 12/18/8
f 14/20/9 9/26/9 15/21/9
f 16/23/10 13/19/10 12/24/10
f 11/17/11 10/16/11 13/19/11
f 9/26/12 11/17/12 16/23/12
o Stena1_3_Cube.003
v -4.001271 4.376683 4.082022
v -4.001272 -0.042679 -4.111668
v -4.001272 4.376683 -4.111668
v -4.102990 -0.042679 4.082022
v -4.102990 -0.042679 -4.111668
v -4.001271 -0.042679 4.082022
v -4.102990 4.376683 4.082022
v -4.102990 4.376683 -4.111668
vt 0.875000 0.500000
vt 0.625000 0.750000
vt 0.625000 0.500000
vt 0.375000 1.000000
vt 0.375000 0.750000
vt 0.625000 0.000000
vt 0.375000 0.250000
vt 0.375000 0.000000
vt 0.375000 0.500000
vt 0.125000 0.750000
vt 0.125000 0.500000
vt 0.625000 0.250000
vt 0.875000 0.750000
vt 0.625000 1.000000
vn 1.0000 0.0000 -0.0000
vn 0.0000 -1.0000 -0.0000
vn 0.0000 0.0000 1.0000
vn -1.0000 0.0000 0.0000
vn 0.0000 0.0000 -1.0000
vn 0.0000 1.0000 0.0000
s 1
f 17/29/13 18/30/13 19/31/13
f 18/30/14 20/32/14 21/33/14
f 22/34/15 23/35/15 20/36/15
f 24/37/16 20/38/16 23/39/16
f 19/31/17 21/33/17 24/37/17
f 17/40/18 24/37/18 23/35/18
f 17/29/13 22/41/13 18/30/13
f 18/30/14 22/42/14 20/32/14
f 22/34/15 17/40/15 23/35/15
f 24/37/16 21/33/16 20/38/16
f 19/31/17 18/30/17 21/33/17
f 17/40/18 19/31/18 24/37/18
o Stena1_4_Cube.004
v 4.040094 4.376683 -4.111668
v 4.040094 4.376683 4.082022
v 4.040094 2.926041 -0.762137
v 3.938376 -0.042679 4.082022
v 4.040094 -0.042679 0.984469
v 4.040094 -0.042679 4.082022
v 4.040093 -0.042679 -4.111668
v 3.938375 -0.042679 -0.762137
v 3.938375 -0.042679 -4.111668
v 3.938376 4.376683 4.082022
v 3.938375 2.926041 -0.762137
v 3.938375 2.926041 0.984469
v 3.938375 4.376683 -4.111668
v 4.040094 -0.042679 -0.762137
v 4.040094 2.926041 0.984469
v 3.938375 -0.042679 0.984469
vt 0.625000 0.500000
vt 0.875000 0.500000
vt 0.727198 0.582062
vt 0.375000 1.000000
vt 0.625000 0.905490
vt 0.625000 1.000000
vt 0.625000 0.750000
vt 0.375000 0.852198
vt 0.375000 0.750000
vt 0.625000 0.000000
vt 0.375000 0.250000
vt 0.375000 0.000000
vt 0.272801 0.582062
vt 0.219510 0.582062
vt 0.125000 0.500000
vt 0.375000 0.500000
vt 0.625000 0.250000
vt 0.375000 0.351894
vt 0.375000 0.339179
vt 0.375000 0.351894
vt 0.375000 0.898106
vt 0.375000 0.910821
vt 0.375000 0.910821
vt 0.625000 0.500000
vt 0.625000 0.750000
vt 0.625000 0.500000
vt 0.727198 0.750000
vt 0.875000 0.750000
vt 0.780490 0.582062
vt 0.780490 0.750000
vt 0.375000 0.905490
vt 0.625000 0.852198
vt 0.219510 0.750000
vt 0.125000 0.750000
vt 0.272802 0.750000
vt 0.375000 0.339179
vt 0.375000 0.898106
vt 0.625000 0.750000
vn 1.0000 -0.0000 -0.0000
vn 0.0000 -1.0000 -0.0000
vn 0.0000 0.0000 1.0000
vn -1.0000 0.0000 0.0000
vn 0.0000 0.0000 -1.0000
vn 0.0000 1.0000 -0.0000
s 1
f 25/43/19 26/44/19 27/45/19
f 28/46/20 29/47/20 30/48/20
f 31/49/20 32/50/20 33/51/20
f 30/52/21 34/53/21 28/54/21
f 35/55/22 36/56/22 34/57/22
f 25/43/23 33/51/23 37/58/23
f 26/59/24 37/58/24 34/53/24
f 27/60/21 32/61/21 38/62/21
f 39/63/23 40/64/23 36/65/23
f 27/66/20 36/67/20 35/68/20
f 38/69/19 31/49/19 27/45/19
f 31/49/19 25/43/19 27/45/19
f 26/44/19 30/70/19 39/71/19
f 30/70/19 29/72/19 39/71/19
f 26/44/19 39/71/19 27/45/19
f 28/46/20 40/73/20 29/47/20
f 31/49/20 38/74/20 32/50/20
f 30/52/21 26/59/21 34/53/21
f 36/56/22 40/75/22 28/76/22
f 37/58/22 33/51/22 35/55/22
f 33/51/22 32/77/22 35/55/22
f 36/56/22 28/76/22 34/57/22
f 37/58/22 35/55/22 34/57/22
f 25/43/23 31/49/23 33/51/23
f 26/59/24 25/43/24 37/58/24
f 27/60/21 35/78/21 32/61/21
f 39/63/23 29/79/23 40/64/23
f 27/66/20 39/80/20 36/67/20
o Stena1_2_Cube.001
v -4.000000 4.376683 4.079686
v 4.000000 -0.042679 4.079686
v 4.000000 4.376683 4.079686
v -4.000000 -0.042679 3.977967
v 4.000000 -0.042679 3.977967
v -4.000000 -0.042679 4.079686
v -4.000000 4.376683 3.977968
v 4.000000 4.376683 3.977968
vt 0.875000 0.500000
vt 0.625000 0.750000
vt 0.625000 0.500000
vt 0.375000 1.000000
vt 0.375000 0.750000
vt 0.625000 0.000000
vt 0.375000 0.250000
vt 0.375000 0.000000
vt 0.375000 0.500000
vt 0.125000 0.750000
vt 0.125000 0.500000
vt 0.625000 0.250000
vt 0.875000 0.750000
vt 0.625000 1.000000
vn 0.0000 0.0000 1.0000
vn 0.0000 -1.0000 -0.0000
vn -1.0000 0.0000 0.0000
vn 0.0000 0.0000 -1.0000
vn 1.0000 0.0000 0.0000
vn 0.0000 1.0000 0.0000
s 1
f 41/81/25 42/82/25 43/83/25
f 42/82/26 44/84/26 45/85/26
f 46/86/27 47/87/27 44/88/27
f 48/89/28 44/90/28 47/91/28
f 43/83/29 45/85/29 48/89/29
f 41/92/30 48/89/30 47/87/30
f 41/81/25 46/93/25 42/82/25
f 42/82/26 46/94/26 44/84/26
f 46/86/27 41/92/27 47/87/27
f 48/89/28 45/85/28 44/90/28
f 43/83/29 42/82/29 45/85/29
f 41/92/30 43/83/30 48/89/30
