# Blender v2.93.5 OBJ File: 'pgr_scene.blend'
# www.blender.org
o Stena1_4_Cube.004
v 4.040094 4.376683 -4.111668
v 3.938375 4.376683 -4.111668
v 4.040093 -0.042679 -4.111668
v 3.938375 -0.042679 -4.111668
v 4.040094 4.376683 4.082022
v 3.938376 4.376683 4.082022
v 4.040094 -0.042679 4.082022
v 3.938376 -0.042679 4.082022
v 4.040094 2.926041 -0.762137
v 4.040094 2.926041 0.984469
v 4.040094 -0.042679 0.984469
v 4.040094 -0.042679 -0.762137
v 3.938375 -0.042679 -0.762137
v 3.938375 -0.042679 0.984469
v 3.938375 2.926041 0.984469
v 3.938375 2.926041 -0.762137
vt 0.625000 0.500000
vt 0.875000 0.500000
vt 0.727198 0.582062
vt 0.375000 1.000000
vt 0.625000 0.905490
vt 0.625000 1.000000
vt 0.625000 0.750000
vt 0.375000 0.852198
vt 0.375000 0.750000
vt 0.625000 0.000000
vt 0.375000 0.250000
vt 0.375000 0.000000
vt 0.272801 0.582062
vt 0.219510 0.582062
vt 0.125000 0.500000
vt 0.375000 0.500000
vt 0.625000 0.250000
vt 0.375000 0.351894
vt 0.375000 0.339179
vt 0.375000 0.351894
vt 0.375000 0.898106
vt 0.375000 0.910821
vt 0.375000 0.910821
vt 0.625000 0.500000
vt 0.625000 0.750000
vt 0.625000 0.500000
vt 0.727198 0.750000
vt 0.875000 0.750000
vt 0.780490 0.582062
vt 0.780490 0.750000
vt 0.375000 0.905490
vt 0.625000 0.852198
vt 0.219510 0.750000
vt 0.125000 0.750000
vt 0.272802 0.750000
vt 0.375000 0.339179
vt 0.375000 0.898106
vt 0.625000 0.750000
vn 1.0000 0.0000 0.0000
vn 0.0000 -1.0000 0.0000
vn 0.0000 0.0000 1.0000
vn -1.0000 0.0000 0.0000
vn 0.0000 0.0000 -1.0000
vn 0.0000 1.0000 -0.0000
s off
f 1/1/1 5/2/1 9/3/1
f 8/4/2 11/5/2 7/6/2
f 3/7/2 13/8/2 4/9/2
f 7/10/3 6/11/3 8/12/3
f 16/13/4 15/14/4 6/15/4
f 1/1/5 4/9/5 2/16/5
f 5/17/6 2/16/6 6/11/6
f 9/18/3 13/19/3 12/20/3
f 10/21/5 14/22/5 15/23/5
f 9/24/2 15/25/2 16/26/2
f 12/27/1 3/7/1 9/3/1
f 3/7/1 1/1/1 9/3/1
f 5/2/1 7/28/1 10/29/1
f 7/28/1 11/30/1 10/29/1
f 5/2/1 10/29/1 9/3/1
f 8/4/2 14/31/2 11/5/2
f 3/7/2 12/32/2 13/8/2
f 7/10/3 5/17/3 6/11/3
f 15/14/4 14/33/4 8/34/4
f 2/16/4 4/9/4 16/13/4
f 4/9/4 13/35/4 16/13/4
f 15/14/4 8/34/4 6/15/4
f 2/16/4 16/13/4 6/15/4
f 1/1/5 3/7/5 4/9/5
f 5/17/6 1/1/6 2/16/6
f 9/18/3 16/36/3 13/19/3
f 10/21/5 11/37/5 14/22/5
f 9/24/2 10/38/2 15/25/2
o Podlaha1.001_Cube.006
v 19.580589 0.050859 -9.204142
v 19.580589 -0.050859 -9.204142
v 19.580589 0.050859 9.204142
v 19.580589 -0.050859 9.204142
v 4.036899 0.050859 -9.204142
v 4.036899 -0.050859 -9.204142
v 4.036899 0.050859 9.204142
v 4.036899 -0.050859 9.204142
vt 0.875000 0.500000
vt 0.625000 0.750000
vt 0.625000 0.500000
vt 0.375000 1.000000
vt 0.375000 0.750000
vt 0.625000 0.000000
vt 0.375000 0.250000
vt 0.375000 0.000000
vt 0.375000 0.500000
vt 0.125000 0.750000
vt 0.125000 0.500000
vt 0.625000 0.250000
vt 0.875000 0.750000
vt 0.625000 1.000000
vn 0.0000 1.0000 0.0000
vn 0.0000 0.0000 1.0000
vn -1.0000 0.0000 0.0000
vn 0.0000 -1.0000 0.0000
vn 1.0000 0.0000 0.0000
vn 0.0000 0.0000 -1.0000
s off
f 21/39/7 19/40/7 17/41/7
f 19/40/8 24/42/8 20/43/8
f 23/44/9 22/45/9 24/46/9
f 18/47/10 24/48/10 22/49/10
f 17/41/11 20/43/11 18/47/11
f 21/50/12 18/47/12 22/45/12
f 21/39/7 23/51/7 19/40/7
f 19/40/8 23/52/8 24/42/8
f 23/44/9 21/50/9 22/45/9
f 18/47/10 20/43/10 24/48/10
f 17/41/11 19/40/11 20/43/11
f 21/50/12 17/41/12 18/47/12
o Stena1_3.001_Cube.007
v 4.049905 4.376683 -9.215260
v 3.948187 4.376683 -9.215260
v 4.049905 -0.042679 -9.215260
v 3.948186 -0.042679 -9.215260
v 4.049905 4.376683 -3.994226
v 3.948187 4.376683 -3.994226
v 4.049905 -0.042679 -3.994226
v 3.948187 -0.042679 -3.994226
vt 0.875000 0.500000
vt 0.625000 0.750000
vt 0.625000 0.500000
vt 0.375000 1.000000
vt 0.375000 0.750000
vt 0.625000 0.000000
vt 0.375000 0.250000
vt 0.375000 0.000000
vt 0.375000 0.500000
vt 0.125000 0.750000
vt 0.125000 0.500000
vt 0.625000 0.250000
vt 0.875000 0.750000
vt 0.625000 1.000000
vn 1.0000 0.0000 -0.0000
vn 0.0000 -1.0000 0.0000
vn 0.0000 0.0000 1.0000
vn -1.0000 0.0000 0.0000
vn 0.0000 0.0000 -1.0000
vn 0.0000 1.0000 -0.0000
s off
f 29/53/13 27/54/13 25/55/13
f 27/54/14 32/56/14 28/57/14
f 31/58/15 30/59/15 32/60/15
f 26/61/16 32/62/16 30/63/16
f 25/55/17 28/57/17 26/61/17
f 29/64/18 26/61/18 30/59/18
f 29/53/13 31/65/13 27/54/13
f 27/54/14 31/66/14 32/56/14
f 31/58/15 29/64/15 30/59/15
f 26/61/16 28/57/16 32/62/16
f 25/55/17 27/54/17 28/57/17
f 29/64/18 25/55/18 26/61/18
o Stena1_3.003_Cube.009
v 19.677607 4.376683 -9.222637
v 19.575888 4.376683 -9.222637
v 19.677607 -0.042679 -9.222637
v 19.575888 -0.042679 -9.222637
v 19.677607 4.376683 9.192991
v 19.575890 4.376683 9.192991
v 19.677607 -0.042679 9.192991
v 19.575890 -0.042679 9.192991
v 19.677607 -0.042679 -4.266438
v 19.677607 2.930493 -4.266438
v 19.677607 2.930493 -6.013044
v 19.677607 -0.042679 -6.013044
v 19.575888 -0.042679 -6.013044
v 19.575888 -0.042679 -4.266438
v 19.575888 2.930493 -4.266438
v 19.575888 2.930493 -6.013044
v 19.677607 -0.042679 5.682548
v 19.677607 -0.042679 3.935942
v 19.677607 2.976548 5.682548
v 19.677607 2.976548 3.935942
v 19.575890 -0.042679 3.935942
v 19.575890 -0.042679 5.682548
v 19.575890 2.976548 5.682548
v 19.575890 2.976548 3.935942
vt 0.625000 0.500000
vt 0.803633 0.579204
vt 0.692282 0.581810
vt 0.625000 0.817282
vt 0.375000 0.928633
vt 0.375000 0.817282
vt 0.375000 1.000000
vt 0.625000 0.952344
vt 0.625000 1.000000
vt 0.625000 0.750000
vt 0.375000 0.793572
vt 0.375000 0.750000
vt 0.625000 0.000000
vt 0.375000 0.250000
vt 0.375000 0.000000
vt 0.375000 0.500000
vt 0.307717 0.581810
vt 0.196367 0.579205
vt 0.625000 0.250000
vt 0.375000 0.391764
vt 0.375000 0.379050
vt 0.375000 0.391764
vt 0.375000 0.858236
vt 0.375000 0.870950
vt 0.375000 0.870950
vt 0.625000 0.500000
vt 0.625000 0.750000
vt 0.625000 0.500000
vt 0.375000 0.391764
vt 0.375000 0.379049
vt 0.375000 0.391764
vt 0.375000 0.858236
vt 0.375000 0.870951
vt 0.375000 0.870951
vt 0.625000 0.500000
vt 0.625000 0.750000
vt 0.625000 0.500000
vt 0.668572 0.581810
vt 0.668572 0.750000
vt 0.875000 0.500000
vt 0.875000 0.750000
vt 0.827344 0.579205
vt 0.827344 0.750000
vt 0.803633 0.750000
vt 0.692283 0.750000
vt 0.625000 0.928633
vt 0.375000 0.952344
vt 0.625000 0.793572
vt 0.172656 0.750000
vt 0.125000 0.750000
vt 0.172656 0.579205
vt 0.125000 0.500000
vt 0.331428 0.581810
vt 0.331428 0.750000
vt 0.307717 0.750000
vt 0.196367 0.750000
vt 0.375000 0.379050
vt 0.375000 0.858236
vt 0.625000 0.750000
vt 0.375000 0.379049
vt 0.375000 0.858236
vt 0.625000 0.750000
vn 1.0000 0.0000 0.0000
vn 0.0000 -1.0000 0.0000
vn 0.0000 0.0000 1.0000
vn -1.0000 0.0000 0.0000
vn 0.0000 0.0000 -1.0000
vn 0.0000 1.0000 -0.0000
s off
f 33/67/19 52/68/19 42/69/19
f 41/70/20 53/71/20 46/72/20
f 40/73/20 49/74/20 39/75/20
f 35/76/20 45/77/20 36/78/20
f 39/79/21 38/80/21 40/81/21
f 34/82/22 47/83/22 56/84/22
f 33/67/23 36/78/23 34/82/23
f 37/85/24 34/82/24 38/80/24
f 43/86/21 45/87/21 44/88/21
f 42/89/23 46/90/23 47/91/23
f 43/92/20 47/93/20 48/94/20
f 52/95/21 53/96/21 50/97/21
f 51/98/23 54/99/23 55/100/23
f 52/101/20 55/102/20 56/103/20
f 43/104/19 44/105/19 35/76/19
f 37/106/19 39/107/19 51/108/19
f 39/107/19 49/109/19 51/108/19
f 43/104/19 35/76/19 33/67/19
f 50/110/19 41/111/19 42/69/19
f 42/69/19 43/104/19 33/67/19
f 33/67/19 37/106/19 52/68/19
f 37/106/19 51/108/19 52/68/19
f 52/68/19 50/110/19 42/69/19
f 41/70/20 50/112/20 53/71/20
f 40/73/20 54/113/20 49/74/20
f 35/76/20 44/114/20 45/77/20
f 39/79/21 37/85/21 38/80/21
f 54/115/22 40/116/22 55/117/22
f 40/116/22 38/118/22 55/117/22
f 34/82/22 36/78/22 48/119/22
f 36/78/22 45/120/22 48/119/22
f 46/121/22 53/122/22 47/83/22
f 53/122/22 56/84/22 47/83/22
f 56/84/22 55/117/22 38/118/22
f 38/118/22 34/82/22 56/84/22
f 34/82/22 48/119/22 47/83/22
f 33/67/23 35/76/23 36/78/23
f 37/85/24 33/67/24 34/82/24
f 43/86/21 48/123/21 45/87/21
f 42/89/23 41/124/23 46/90/23
f 43/92/20 42/125/20 47/93/20
f 52/95/21 56/126/21 53/96/21
f 51/98/23 49/127/23 54/99/23
f 52/101/20 51/128/20 55/102/20
o Stena1_2.001_Cube.010
v 19.722092 4.376683 -9.219367
v 19.722092 4.376683 -9.321086
v 19.722092 -0.042678 -9.219368
v 19.722092 -0.042678 -9.321086
v 3.906841 4.376683 -9.219367
v 3.906841 4.376683 -9.321086
v 3.906841 -0.042678 -9.219368
v 3.906841 -0.042678 -9.321086
v 13.024765 2.921543 -9.219367
v 13.024765 -0.042678 -9.219368
v 15.024765 -0.042678 -9.219368
v 15.024765 2.921543 -9.219367
v 15.024765 -0.042678 -9.321086
v 13.024765 -0.042678 -9.321086
v 13.024765 2.921543 -9.321086
v 15.024765 2.921543 -9.321086
vt 0.730868 0.582316
vt 0.699253 0.582316
vt 0.625000 0.500000
vt 0.375000 1.000000
vt 0.625000 0.855868
vt 0.625000 1.000000
vt 0.625000 0.750000
vt 0.375000 0.824253
vt 0.375000 0.750000
vt 0.625000 0.000000
vt 0.375000 0.250000
vt 0.375000 0.000000
vt 0.125000 0.500000
vt 0.375000 0.500000
vt 0.269132 0.582316
vt 0.625000 0.250000
vt 0.625000 0.063154
vt 0.391166 0.077713
vt 0.625000 0.077713
vt 0.625000 0.686846
vt 0.391166 0.672287
vt 0.391166 0.686846
vt 0.625000 0.750000
vt 0.875000 0.500000
vt 0.625000 0.750000
vt 0.699253 0.750000
vt 0.875000 0.500000
vt 0.875000 0.750000
vt 0.730868 0.750000
vt 0.375000 0.855868
vt 0.625000 0.824253
vt 0.269132 0.750000
vt 0.125000 0.750000
vt 0.300747 0.582316
vt 0.300747 0.750000
vt 0.391166 0.063154
vt 0.625000 0.672287
vt 0.875000 0.500000
vn 0.0000 0.0000 1.0000
vn 0.0000 -1.0000 0.0000
vn -1.0000 0.0000 0.0000
vn 0.0000 0.0000 -1.0000
vn 1.0000 0.0000 0.0000
vn 0.0000 1.0000 0.0000
s off
f 65/129/25 68/130/25 57/131/25
f 64/132/26 66/133/26 63/134/26
f 59/135/26 69/136/26 60/137/26
f 63/138/27 62/139/27 64/140/27
f 62/141/28 58/142/28 71/143/28
f 57/131/29 60/137/29 58/142/29
f 61/144/30 58/142/30 62/139/30
f 65/145/29 70/146/29 71/147/29
f 68/148/27 69/149/27 67/150/27
f 68/151/26 71/152/26 72/153/26
f 68/130/25 67/154/25 59/135/25
f 61/155/25 63/156/25 65/129/25
f 63/156/25 66/157/25 65/129/25
f 68/130/25 59/135/25 57/131/25
f 61/155/25 65/129/25 57/131/25
f 64/132/26 70/158/26 66/133/26
f 59/135/26 67/159/26 69/136/26
f 63/138/27 61/144/27 62/139/27
f 71/143/28 70/160/28 64/161/28
f 58/142/28 60/137/28 72/162/28
f 60/137/28 69/163/28 72/162/28
f 71/143/28 64/161/28 62/141/28
f 58/142/28 72/162/28 71/143/28
f 57/131/29 59/135/29 60/137/29
f 61/144/30 57/131/30 58/142/30
f 65/145/29 66/164/29 70/146/29
f 68/148/27 72/165/27 69/149/27
f 68/151/26 65/166/26 71/152/26
o Stena1_2.002_Cube.011
v 19.722092 4.376683 9.290430
v 19.722092 4.376683 9.188711
v 19.722092 -0.042678 9.290429
v 19.722092 -0.042678 9.188711
v 3.906841 4.376683 9.290430
v 3.906841 4.376683 9.188711
v 3.906841 -0.042678 9.290429
v 3.906841 -0.042678 9.188711
v 13.024765 2.921543 9.290430
v 13.024765 -0.042678 9.290429
v 15.024765 2.921543 9.290430
v 15.024765 -0.042678 9.290429
v 15.024765 -0.042678 9.188711
v 13.024765 -0.042678 9.188711
v 13.024765 2.921543 9.188711
v 15.024765 2.921543 9.188711
vt 0.730868 0.582316
vt 0.699253 0.582316
vt 0.625000 0.500000
vt 0.375000 1.000000
vt 0.625000 0.855868
vt 0.625000 1.000000
vt 0.625000 0.750000
vt 0.375000 0.824253
vt 0.375000 0.750000
vt 0.625000 0.000000
vt 0.375000 0.250000
vt 0.375000 0.000000
vt 0.125000 0.500000
vt 0.375000 0.500000
vt 0.269132 0.582316
vt 0.625000 0.250000
vt 0.625000 0.128126
vt 0.391166 0.142685
vt 0.625000 0.142685
vt 0.625000 0.621874
vt 0.391166 0.607315
vt 0.391166 0.621874
vt 0.625000 0.750000
vt 0.875000 0.500000
vt 0.625000 0.750000
vt 0.699253 0.750000
vt 0.875000 0.500000
vt 0.875000 0.750000
vt 0.730868 0.750000
vt 0.375000 0.855868
vt 0.625000 0.824253
vt 0.269132 0.750000
vt 0.125000 0.750000
vt 0.300747 0.582316
vt 0.300747 0.750000
vt 0.391166 0.128126
vt 0.625000 0.607315
vt 0.875000 0.500000
vn 0.0000 0.0000 1.0000
vn 0.0000 -1.0000 0.0000
vn -1.0000 0.0000 0.0000
vn 0.0000 0.0000 -1.0000
vn 1.0000 0.0000 0.0000
vn 0.0000 1.0000 0.0000
s off
f 81/167/31 83/168/31 73/169/31
f 80/170/32 82/171/32 79/172/32
f 75/173/32 85/174/32 76/175/32
f 79/176/33 78/177/33 80/178/33
f 78/179/34 74/180/34 87/181/34
f 73/169/35 76/175/35 74/180/35
f 77/182/36 74/180/36 78/177/36
f 81/183/35 86/184/35 87/185/35
f 83/186/33 85/187/33 84/188/33
f 83/189/32 87/190/32 88/191/32
f 83/168/31 84/192/31 75/173/31
f 77/193/31 79/194/31 81/167/31
f 79/194/31 82/195/31 81/167/31
f 83/168/31 75/173/31 73/169/31
f 77/193/31 81/167/31 73/169/31
f 80/170/32 86/196/32 82/171/32
f 75/173/32 84/197/32 85/174/32
f 79/176/33 77/182/33 78/177/33
f 87/181/34 86/198/34 80/199/34
f 74/180/34 76/175/34 88/200/34
f 76/175/34 85/201/34 88/200/34
f 87/181/34 80/199/34 78/179/34
f 74/180/34 88/200/34 87/181/34
f 73/169/35 75/173/35 76/175/35
f 77/182/36 73/169/36 74/180/36
f 81/183/35 82/202/35 86/184/35
f 83/186/33 88/203/33 85/187/33
f 83/189/32 81/204/32 87/190/32
o Stena1_3.006_Cube.017
v 4.026678 4.376683 4.048888
v 3.924959 4.376683 4.048888
v 4.026678 -0.042679 4.048888
v 3.924959 -0.042679 4.048888
v 4.026678 4.376683 9.135227
v 3.924960 4.376683 9.135227
v 4.026678 -0.042679 9.135227
v 3.924959 -0.042679 9.135227
vt 0.875000 0.500000
vt 0.625000 0.750000
vt 0.625000 0.500000
vt 0.375000 1.000000
vt 0.375000 0.750000
vt 0.625000 0.000000
vt 0.375000 0.250000
vt 0.375000 0.000000
vt 0.375000 0.500000
vt 0.125000 0.750000
vt 0.125000 0.500000
vt 0.625000 0.250000
vt 0.875000 0.750000
vt 0.625000 1.000000
vn 1.0000 0.0000 -0.0000
vn 0.0000 -1.0000 0.0000
vn 0.0000 0.0000 1.0000
vn -1.0000 0.0000 0.0000
vn 0.0000 0.0000 -1.0000
vn 0.0000 1.0000 -0.0000
s off
f 93/205/37 91/206/37 89/207/37
f 91/206/38 96/208/38 92/209/38
f 95/210/39 94/211/39 96/212/39
f 90/213/40 96/214/40 94/215/40
f 89/207/41 92/209/41 90/213/41
f 93/216/42 90/213/42 94/211/42
f 93/205/37 95/217/37 91/206/37
f 91/206/38 95/218/38 96/208/38
f 95/210/39 93/216/39 94/211/39
f 90/213/40 92/209/40 96/214/40
f 89/207/41 91/206/41 92/209/41
f 93/216/42 89/207/42 90/213/42
