# Blender v2.93.5 OBJ File: 'pgr_scene.blend'
# www.blender.org
o Podlaha1_Cube
v 4.000000 0.050859 -4.000000
v 4.000000 -0.050859 -4.000000
v 4.000000 0.050859 4.000000
v 4.000000 -0.050859 4.000000
v -4.000000 0.050859 -4.000000
v -4.000000 -0.050859 -4.000000
v -4.000000 0.050859 4.000000
v -4.000000 -0.050859 4.000000
vt 0.875000 0.500000
vt 0.625000 0.750000
vt 0.625000 0.500000
vt 0.375000 1.000000
vt 0.375000 0.750000
vt 0.625000 0.000000
vt 0.375000 0.250000
vt 0.375000 0.000000
vt 0.375000 0.500000
vt 0.125000 0.750000
vt 0.125000 0.500000
vt 0.625000 0.250000
vt 0.875000 0.750000
vt 0.625000 1.000000
vn 0.0000 1.0000 0.0000
vn 0.0000 0.0000 1.0000
vn -1.0000 0.0000 0.0000
vn 0.0000 -1.0000 0.0000
vn 1.0000 0.0000 0.0000
vn 0.0000 0.0000 -1.0000
s off
f 5/1/1 3/2/1 1/3/1
f 3/2/2 8/4/2 4/5/2
f 7/6/3 6/7/3 8/8/3
f 2/9/4 8/10/4 6/11/4
f 1/3/5 4/5/5 2/9/5
f 5/12/6 2/9/6 6/7/6
f 5/1/1 7/13/1 3/2/1
f 3/2/2 7/14/2 8/4/2
f 7/6/3 5/12/3 6/7/3
f 2/9/4 4/5/4 8/10/4
f 1/3/5 3/2/5 4/5/5
f 5/12/6 1/3/6 2/9/6
o Stena1_1_Cube.001
v 4.000000 4.376683 4.085608
v 4.000000 4.376683 3.983890
v 4.000000 -0.042679 4.085608
v 4.000000 -0.042679 3.983890
v -4.000000 4.376683 4.085608
v -4.000000 4.376683 3.983890
v -4.000000 -0.042679 4.085608
v -4.000000 -0.042679 3.983890
vt 0.875000 0.500000
vt 0.625000 0.750000
vt 0.625000 0.500000
vt 0.375000 1.000000
vt 0.375000 0.750000
vt 0.625000 0.000000
vt 0.375000 0.250000
vt 0.375000 0.000000
vt 0.375000 0.500000
vt 0.125000 0.750000
vt 0.125000 0.500000
vt 0.625000 0.250000
vt 0.875000 0.750000
vt 0.625000 1.000000
vn 0.0000 -0.0000 1.0000
vn 0.0000 -1.0000 0.0000
vn -1.0000 0.0000 0.0000
vn 0.0000 0.0000 -1.0000
vn 1.0000 0.0000 0.0000
vn 0.0000 1.0000 0.0000
s off
f 13/15/7 11/16/7 9/17/7
f 11/16/8 16/18/8 12/19/8
f 15/20/9 14/21/9 16/22/9
f 10/23/10 16/24/10 14/25/10
f 9/17/11 12/19/11 10/23/11
f 13/26/12 10/23/12 14/21/12
f 13/15/7 15/27/7 11/16/7
f 11/16/8 15/28/8 16/18/8
f 15/20/9 13/26/9 14/21/9
f 10/23/10 12/19/10 16/24/10
f 9/17/11 11/16/11 12/19/11
f 13/26/12 9/17/12 10/23/12
o Stena1_2_Cube.002
v 4.000000 4.376683 -4.010343
v 4.000000 4.376683 -4.112061
v 4.000000 -0.042679 -4.010343
v 4.000000 -0.042679 -4.112062
v -4.000000 4.376683 -4.010343
v -4.000000 4.376683 -4.112061
v -4.000000 -0.042679 -4.010343
v -4.000000 -0.042679 -4.112062
vt 0.875000 0.500000
vt 0.625000 0.750000
vt 0.625000 0.500000
vt 0.375000 1.000000
vt 0.375000 0.750000
vt 0.625000 0.000000
vt 0.375000 0.250000
vt 0.375000 0.000000
vt 0.375000 0.500000
vt 0.125000 0.750000
vt 0.125000 0.500000
vt 0.625000 0.250000
vt 0.875000 0.750000
vt 0.625000 1.000000
vn 0.0000 -0.0000 1.0000
vn 0.0000 -1.0000 0.0000
vn -1.0000 0.0000 0.0000
vn 0.0000 0.0000 -1.0000
vn 1.0000 0.0000 0.0000
vn 0.0000 1.0000 0.0000
s off
f 21/29/13 19/30/13 17/31/13
f 19/30/14 24/32/14 20/33/14
f 23/34/15 22/35/15 24/36/15
f 18/37/16 24/38/16 22/39/16
f 17/31/17 20/33/17 18/37/17
f 21/40/18 18/37/18 22/35/18
f 21/29/13 23/41/13 19/30/13
f 19/30/14 23/42/14 24/32/14
f 23/34/15 21/40/15 22/35/15
f 18/37/16 20/33/16 24/38/16
f 17/31/17 19/30/17 20/33/17
f 21/40/18 17/31/18 18/37/18
o Stena1_3_Cube.003
v -4.001272 4.376683 -4.111668
v -4.102990 4.376683 -4.111668
v -4.001272 -0.042679 -4.111668
v -4.102990 -0.042679 -4.111668
v -4.001271 4.376683 4.082022
v -4.102990 4.376683 4.082022
v -4.001271 -0.042679 4.082022
v -4.102990 -0.042679 4.082022
vt 0.875000 0.500000
vt 0.625000 0.750000
vt 0.625000 0.500000
vt 0.375000 1.000000
vt 0.375000 0.750000
vt 0.625000 0.000000
vt 0.375000 0.250000
vt 0.375000 0.000000
vt 0.375000 0.500000
vt 0.125000 0.750000
vt 0.125000 0.500000
vt 0.625000 0.250000
vt 0.875000 0.750000
vt 0.625000 1.000000
vn 1.0000 0.0000 -0.0000
vn 0.0000 -1.0000 0.0000
vn 0.0000 0.0000 1.0000
vn -1.0000 0.0000 0.0000
vn 0.0000 0.0000 -1.0000
vn 0.0000 1.0000 -0.0000
s off
f 29/43/19 27/44/19 25/45/19
f 27/44/20 32/46/20 28/47/20
f 31/48/21 30/49/21 32/50/21
f 26/51/22 32/52/22 30/53/22
f 25/45/23 28/47/23 26/51/23
f 29/54/24 26/51/24 30/49/24
f 29/43/19 31/55/19 27/44/19
f 27/44/20 31/56/20 32/46/20
f 31/48/21 29/54/21 30/49/21
f 26/51/22 28/47/22 32/52/22
f 25/45/23 27/44/23 28/47/23
f 29/54/24 25/45/24 26/51/24
o Stena1_4_Cube.004
v 4.040094 4.376683 -4.111668
v 3.938375 4.376683 -4.111668
v 4.040093 -0.042679 -4.111668
v 3.938375 -0.042679 -4.111668
v 4.040094 4.376683 4.082022
v 3.938376 4.376683 4.082022
v 4.040094 -0.042679 4.082022
v 3.938376 -0.042679 4.082022
v 4.040094 2.926041 -0.762137
v 4.040094 2.926041 0.984469
v 4.040094 -0.042679 0.984469
v 4.040094 -0.042679 -0.762137
v 3.938375 -0.042679 -0.762137
v 3.938375 -0.042679 0.984469
v 3.938375 2.926041 0.984469
v 3.938375 2.926041 -0.762137
vt 0.625000 0.500000
vt 0.875000 0.500000
vt 0.727198 0.582062
vt 0.375000 1.000000
vt 0.625000 0.905490
vt 0.625000 1.000000
vt 0.625000 0.750000
vt 0.375000 0.852198
vt 0.375000 0.750000
vt 0.625000 0.000000
vt 0.375000 0.250000
vt 0.375000 0.000000
vt 0.272801 0.582062
vt 0.219510 0.582062
vt 0.125000 0.500000
vt 0.375000 0.500000
vt 0.625000 0.250000
vt 0.375000 0.351894
vt 0.375000 0.339179
vt 0.375000 0.351894
vt 0.375000 0.898106
vt 0.375000 0.910821
vt 0.375000 0.910821
vt 0.625000 0.500000
vt 0.625000 0.750000
vt 0.625000 0.500000
vt 0.727198 0.750000
vt 0.875000 0.750000
vt 0.780490 0.582062
vt 0.780490 0.750000
vt 0.375000 0.905490
vt 0.625000 0.852198
vt 0.219510 0.750000
vt 0.125000 0.750000
vt 0.272802 0.750000
vt 0.375000 0.339179
vt 0.375000 0.898106
vt 0.625000 0.750000
vn 1.0000 0.0000 0.0000
vn 0.0000 -1.0000 0.0000
vn 0.0000 0.0000 1.0000
vn -1.0000 0.0000 0.0000
vn 0.0000 0.0000 -1.0000
vn 0.0000 1.0000 -0.0000
s off
f 33/57/25 37/58/25 41/59/25
f 40/60/26 43/61/26 39/62/26
f 35/63/26 45/64/26 36/65/26
f 39/66/27 38/67/27 40/68/27
f 48/69/28 47/70/28 38/71/28
f 33/57/29 36/65/29 34/72/29
f 37/73/30 34/72/30 38/67/30
f 41/74/27 45/75/27 44/76/27
f 42/77/29 46/78/29 47/79/29
f 41/80/26 47/81/26 48/82/26
f 44/83/25 35/63/25 41/59/25
f 35/63/25 33/57/25 41/59/25
f 37/58/25 39/84/25 42/85/25
f 39/84/25 43/86/25 42/85/25
f 37/58/25 42/85/25 41/59/25
f 40/60/26 46/87/26 43/61/26
f 35/63/26 44/88/26 45/64/26
f 39/66/27 37/73/27 38/67/27
f 47/70/28 46/89/28 40/90/28
f 34/72/28 36/65/28 48/69/28
f 36/65/28 45/91/28 48/69/28
f 47/70/28 40/90/28 38/71/28
f 34/72/28 48/69/28 38/71/28
f 33/57/29 35/63/29 36/65/29
f 37/73/30 33/57/30 34/72/30
f 41/74/27 48/92/27 45/75/27
f 42/77/29 43/93/29 46/78/29
f 41/80/26 42/94/26 47/81/26
